<mxfile host="app.diagrams.net" modified="2024-03-06T23:52:35.515Z" agent="Mozilla/5.0 (Windows NT 10.0; Win64; x64) AppleWebKit/537.36 (KHTML, like Gecko) Chrome/122.0.0.0 Safari/537.36" etag="G-DaqpOM_qFRRbw-Z4re" version="24.0.1" type="google">
  <diagram name="Page-1" id="uNvJEXOCaj7kMawxbA7L">
    <mxGraphModel grid="1" page="1" gridSize="10" guides="1" tooltips="1" connect="1" arrows="1" fold="1" pageScale="1" pageWidth="1169" pageHeight="827" math="0" shadow="0">
      <root>
        <mxCell id="0" />
        <mxCell id="1" parent="0" />
        <mxCell id="27a8Qs1USQBXz4flV_lZ-1" style="edgeStyle=orthogonalEdgeStyle;rounded=0;orthogonalLoop=1;jettySize=auto;html=1;exitX=1;exitY=0.5;exitDx=0;exitDy=0;entryX=0;entryY=0.5;entryDx=0;entryDy=0;" edge="1" parent="1" source="27a8Qs1USQBXz4flV_lZ-2" target="27a8Qs1USQBXz4flV_lZ-4">
          <mxGeometry relative="1" as="geometry" />
        </mxCell>
        <mxCell id="27a8Qs1USQBXz4flV_lZ-2" value="Server receive request" style="rounded=1;arcSize=10;whiteSpace=wrap;html=1;align=center;" vertex="1" parent="1">
          <mxGeometry x="305" y="270" width="100" height="40" as="geometry" />
        </mxCell>
        <mxCell id="27a8Qs1USQBXz4flV_lZ-3" style="edgeStyle=orthogonalEdgeStyle;rounded=0;orthogonalLoop=1;jettySize=auto;html=1;exitX=1;exitY=0.5;exitDx=0;exitDy=0;entryX=0;entryY=0.5;entryDx=0;entryDy=0;" edge="1" parent="1" source="27a8Qs1USQBXz4flV_lZ-4" target="27a8Qs1USQBXz4flV_lZ-5">
          <mxGeometry relative="1" as="geometry" />
        </mxCell>
        <mxCell id="27a8Qs1USQBXz4flV_lZ-4" value="Server process request" style="rounded=1;arcSize=10;whiteSpace=wrap;html=1;align=center;" vertex="1" parent="1">
          <mxGeometry x="425" y="270" width="100" height="40" as="geometry" />
        </mxCell>
        <mxCell id="27a8Qs1USQBXz4flV_lZ-5" value="Server send notification" style="rounded=1;arcSize=10;whiteSpace=wrap;html=1;align=center;" vertex="1" parent="1">
          <mxGeometry x="545" y="270" width="100" height="40" as="geometry" />
        </mxCell>
        <mxCell id="27a8Qs1USQBXz4flV_lZ-7" value="&lt;font style=&quot;font-size: 14px;&quot;&gt;&lt;b&gt;Server&lt;/b&gt;&lt;/font&gt;" style="text;html=1;align=center;verticalAlign=middle;whiteSpace=wrap;rounded=0;" vertex="1" parent="1">
          <mxGeometry x="270" y="240" width="60" height="30" as="geometry" />
        </mxCell>
      </root>
    </mxGraphModel>
  </diagram>
</mxfile>
